#!OML:ASF X:\für Bonn\!DataBase\2005_08_12_Daniel\c3d\Daniel.ASF
:FULLY-SPECIFIED
:DEGREES
16
root -0.763076 16.0829 -0.703674 14.8643 -87.8034 -30.9304
lowerback 30.594 -2.40816 4.86262
upperback 1.70119 -2.24187 -3.28033
thorax -14.5076 -1.52755 -5.29849
lowerneck 1.53681 0.665243 -2.78743
upperneck 4.63739 0.693624 3.7181
head 1.15706 0.323132 1.6359
rclavicle -9.06955e-015 -2.70347e-014
rhumerus 52.5739 2.36361 -93.5121
rradius 8.19785
rwrist 56.6946
rhand -18.5892 12.008
rfingers 7.12502
rthumb 7.70168 -17.8318
lclavicle -9.06955e-015 -2.70347e-014
lhumerus 55.3127 2.49986 91.4548
lradius 10.2209
lwrist -68.8705
lhand -14.1507 -2.43923
lfingers 7.12502
lthumb 11.9838 27.1977
rfemur -6.72951 -7.8432 14.2873
rtibia 51.4085
rfoot -24.8188 3.99963
rtoes -13.2246
lfemur -10.7401 -0.375715 -12.7792
ltibia 55.9972
lfoot -29.1647 -7.20612
ltoes -0.954578
17
root -0.734721 15.9661 -0.697933 13.3952 -87.7527 -29.806
lowerback 31.4281 -2.46836 4.87276
upperback 1.83262 -2.30318 -3.29985
thorax -14.7319 -1.56271 -5.28095
lowerneck 1.29856 0.650527 -2.75323
upperneck 4.53382 0.685896 3.70859
head 1.16554 0.323375 1.6277
rclavicle -4.96962e-016 -7.15625e-015
rhumerus 52.9364 2.37844 -93.493
rradius 8.242
rwrist 56.8826
rhand -18.6529 11.9303
rfingers 7.12502
rthumb 7.64017 -17.9117
lclavicle -4.96962e-016 -7.15625e-015
lhumerus 55.5477 2.69753 91.9974
lradius 10.2685
lwrist -69.5474
lhand -14.0639 -2.46296
lfingers 7.12502
lthumb 12.0675 27.1691
rfemur -7.8011 -8.65074 13.8095
rtibia 53.7552
rfoot -24.7488 4.99549
rtoes -12.9956
lfemur -11.5957 0.350798 -12.5323
ltibia 57.8613
lfoot -29.504 -7.91904
ltoes -0.993013
18
root -0.707584 15.8463 -0.692938 11.8038 -87.6927 -28.5438
lowerback 32.2062 -2.5275 4.89968
upperback 1.97793 -2.36375 -3.34282
thorax -14.9111 -1.59835 -5.29902
lowerneck 1.04708 0.623997 -2.66467
upperneck 4.44382 0.662618 3.67443
head 1.18111 0.316409 1.60213
rclavicle 2.98177e-016 -3.02153e-014
rhumerus 53.3161 2.34293 -93.4866
rradius 8.32141
rwrist 57.097
rhand -18.6866 11.8314
rfingers 7.12502
rthumb 7.60764 -18.0118
lclavicle 2.98177e-016 -3.02153e-014
lhumerus 55.7887 2.89608 92.6261
lradius 10.3841
lwrist -70.3101
lhand -13.9376 -2.5029
lfingers 7.12502
lthumb 12.1893 27.1219
rfemur -8.86889 -9.39444 13.341
rtibia 56.0777
rfoot -24.7501 5.91711
rtoes -12.9642
lfemur -12.491 1.06383 -12.2896
ltibia 59.7649
lfoot -29.8477 -8.56884
ltoes -1.12162
19
root -0.681403 15.726 -0.689213 10.6049 -87.6527 -27.6419
lowerback 32.9466 -2.57525 4.89216
upperback 2.1049 -2.41851 -3.3613
thorax -15.0861 -1.62819 -5.27412
lowerneck 0.878431 0.609547 -2.5857
upperneck 4.3023 0.65573 3.60915
head 1.16561 0.316114 1.56729
rclavicle -6.65929e-015 -1.19271e-014
rhumerus 53.721 2.33564 -93.4562
rradius 8.35824
rwrist 57.2452
rhand -18.7313 11.7295
rfingers 7.12502
rthumb 7.56451 -18.1152
lclavicle -6.65929e-015 -1.19271e-014
lhumerus 56.0522 3.08679 93.165
lradius 10.4439
lwrist -71.0227
lhand -13.8817 -2.53179
lfingers 7.12502
lthumb 12.2432 27.0899
rfemur -9.95723 -10.0918 12.9052
rtibia 58.3689
rfoot -24.7471 6.77838
rtoes -12.8405
lfemur -13.4169 1.75306 -12.0375
ltibia 61.6889
lfoot -30.2152 -9.19462
ltoes -1.17898
20
root -0.656045 15.6018 -0.686295 9.4844 -87.6048 -26.8037
lowerback 33.6639 -2.61306 4.88209
upperback 2.22433 -2.46144 -3.37547
thorax -15.2528 -1.65229 -5.24835
lowerneck 0.665193 0.587777 -2.47108
upperneck 4.23962 0.637688 3.51606
head 1.18294 0.310634 1.51828
rclavicle 4.47266e-016 9.54166e-015
rhumerus 54.1322 2.31653 -93.4242
rradius 8.37785
rwrist 57.3954
rhand -18.7223 11.6145
rfingers 7.12502
rthumb 7.57324 -18.2299
lclavicle 4.47266e-016 9.54166e-015
lhumerus 56.3311 3.28789 93.8051
lradius 10.5132
lwrist -71.8303
lhand -13.8549 -2.58465
lfingers 7.12502
lthumb 12.269 27.0354
rfemur -11.0582 -10.7595 12.4754
rtibia 60.661
rfoot -24.741 7.64398
rtoes -12.6014
lfemur -14.3768 2.43071 -11.7776
ltibia 63.649
lfoot -30.5762 -9.81713
ltoes -1.19522
21
root -0.631152 15.4714 -0.684348 9.01528 -87.5514 -26.6155
lowerback 34.3451 -2.65474 4.8824
upperback 2.35977 -2.50681 -3.38305
thorax -15.3803 -1.67698 -5.21993
lowerneck 0.543973 0.573192 -2.36905
upperneck 4.06417 0.629519 3.4453
head 1.14864 0.309155 1.47713
rclavicle 1.21756e-014 1.19271e-014
rhumerus 54.5971 2.32383 -93.4134
rradius 8.36421
rwrist 57.6072
rhand -18.6991 11.4413
rfingers 7.12502
rthumb 7.59559 -18.4023
lclavicle 1.21756e-014 1.19271e-014
lhumerus 56.682 3.56933 94.6101
lradius 10.5331
lwrist -72.8296
lhand -13.9248 -2.63748
lfingers 7.12502
lthumb 12.2016 26.9866
rfemur -12.1619 -11.4069 12.0828
rtibia 62.9548
rfoot -24.7586 8.46409
rtoes -12.5266
lfemur -15.3655 3.06993 -11.4807
ltibia 65.645
lfoot -30.9352 -10.4344
ltoes -1.27239
22
root -0.60642 15.3326 -0.683413 8.52217 -87.492 -26.3622
lowerback 34.9846 -2.69601 4.87725
upperback 2.47612 -2.55301 -3.3845
thorax -15.5081 -1.70138 -5.1822
lowerneck 0.453519 0.559777 -2.28853
upperneck 3.92119 0.6208 3.3732
head 1.11934 0.306518 1.43945
rclavicle -9.49197e-015 1.51076e-014
rhumerus 55.0687 2.32551 -93.3872
rradius 8.31831
rwrist 57.7852
rhand -18.6434 11.2095
rfingers 7.12502
rthumb 7.64936 -18.6322
lclavicle -9.49197e-015 1.51076e-014
lhumerus 57.0473 3.88051 95.4789
lradius 10.5514
lwrist -73.8609
lhand -13.989 -2.70301
lfingers 7.12502
lthumb 12.1397 26.9248
rfemur -13.3321 -12.0507 11.6962
rtibia 65.2716
rfoot -24.779 9.28715
rtoes -12.3092
lfemur -16.4365 3.69461 -11.1825
ltibia 67.6907
lfoot -31.2732 -11.0196
ltoes -1.3461
23
root -0.583237 15.1926 -0.682384 7.73515 -87.4346 -25.8007
lowerback 35.5651 -2.72572 4.86144
upperback 2.61418 -2.59289 -3.39097
thorax -15.5812 -1.72134 -5.14777
lowerneck 0.45908 0.551624 -2.16395
upperneck 3.69258 0.619926 3.27466
head 1.04654 0.307034 1.38446
rclavicle -3.18055e-015 1.98785e-014
rhumerus 55.6033 2.33681 -93.3737
rradius 8.23786
rwrist 58.0278
rhand -18.5722 10.9877
rfingers 7.12502
rthumb 7.71812 -18.8514
lclavicle -3.18055e-015 1.98785e-014
lhumerus 57.4539 4.15031 96.3455
lradius 10.5432
lwrist -74.8767
lhand -14.1297 -2.77414
lfingers 7.12502
lthumb 12.004 26.8616
rfemur -14.5124 -12.6811 11.2944
rtibia 67.5852
rfoot -24.7887 10.0758
rtoes -12.0688
lfemur -17.5294 4.28539 -10.8996
ltibia 69.7546
lfoot -31.6218 -11.6303
ltoes -1.46069
24
root -0.560303 15.0485 -0.681069 7.54869 -87.3811 -25.8451
lowerback 36.1782 -2.76656 4.87589
upperback 2.71278 -2.63163 -3.39528
thorax -15.7112 -1.74396 -5.12743
lowerneck 0.588723 0.540213 -2.05885
upperneck 3.44266 0.612477 3.17825
head 0.946447 0.302606 1.33276
rclavicle 3.77691e-015 -1.03368e-014
rhumerus 56.0577 2.34052 -93.3611
rradius 8.19262
rwrist 58.2983
rhand -18.4401 10.7234
rfingers 7.12502
rthumb 7.84561 -19.1111
lclavicle 3.77691e-015 -1.03368e-014
lhumerus 57.8067 4.36892 97.0928
lradius 10.5294
lwrist -75.6444
lhand -14.2609 -2.82877
lfingers 7.12502
lthumb 11.8776 26.8143
rfemur -15.6705 -13.299 10.9135
rtibia 69.8883
rfoot -24.7991 10.8703
rtoes -11.8786
lfemur -18.6253 4.83422 -10.5935
ltibia 71.8424
lfoot -31.9107 -12.247
ltoes -1.46928
25
root -0.536833 14.8992 -0.680927 7.51692 -87.3243 -26.0166
lowerback 36.767 -2.80523 4.87859
upperback 2.81363 -2.6717 -3.39077
thorax -15.824 -1.7657 -5.09052
lowerneck 0.663583 0.531818 -1.9501
upperneck 3.22033 0.609307 3.07781
head 0.864547 0.300855 1.28006
rclavicle -3.08116e-015 -1.11319e-014
rhumerus 56.5491 2.35789 -93.3477
rradius 8.13287
rwrist 58.5678
rhand -18.3246 10.4557
rfingers 7.12502
rthumb 7.95703 -19.3746
lclavicle -3.08116e-015 -1.11319e-014
lhumerus 58.2146 4.60587 97.8851
lradius 10.4688
lwrist -76.425
lhand -14.4225 -2.8784
lfingers 7.12502
lthumb 11.7217 26.7736
rfemur -16.8866 -13.9129 10.5517
rtibia 72.2034
rfoot -24.8163 11.6241
rtoes -11.6584
lfemur -19.7833 5.3884 -10.2655
ltibia 73.9568
lfoot -32.1864 -12.8913
ltoes -1.52069
